<svg xmlns="http://www.w3.org/2000/svg" width="119.79" height="220.66" viewBox="0 0 119.79 220.66">
  <defs>
    <style>
      .cls-1 {
        fill: none;
        stroke: #333;
        stroke-miterlimit: 10;
        stroke-width: 2px;
        opacity: 0.8;
      }
    </style>
  </defs>
  <title>taiAsset 3</title>
  <g id="Layer_2" data-name="Layer 2">
    <g id="Layer_1-2" data-name="Layer 1">
      <path class="cls-1" d="M76.05,12a4.52,4.52,0,0,0,3.1-1.11l7.4-6.47c1.77-1.54,3.7-3.16,6-3.37,6.55-.58,9.9,9.67,16.48,9.61,1.56,0,3.46-.52,4.43.7.68.86.45,2.16,1,3.11,1.08,1.78,4.66,2,4.23,4.06-.35,1.69-2.84,1.25-4.55,1.57-2.51.48-3.76,3.27-4.6,5.69-1.72,5-3.43,10.55-1.28,15.35.61,1.36,1.5,2.58,2,4,1.79,4.94-1.62,10.07-4.48,14.49a67,67,0,0,0-10.1,24.79c-.87,5-1,10.23-2.45,15.14-1.6,5.49-4.76,10.56-5.36,16.25-.36,3.36.2,6.77-.14,10.13-.4,4-2,7.68-3.65,11.32L75,157.86c-1.44,3.25-3,6.65-5.89,8.71-2.35,1.68-5.38,2.3-7.49,4.27A13.84,13.84,0,0,0,59,174.7a73,73,0,0,0-7.41,44.45,80.28,80.28,0,0,0-9.85-2.84L41.5,203a12.77,12.77,0,0,0-.7-4.88,12.82,12.82,0,0,0-3.67-4.37l-19.62-17.3a12.46,12.46,0,0,1-2.84-3.14,14.31,14.31,0,0,1-1.27-4.85c-1.18-7.58-4.07-14.77-6.94-21.88a4.91,4.91,0,0,0-1.9-2.68c-.62-.32-1.36-.37-2-.68-1.57-.78-1.88-3-1.29-4.62s1.81-3,2.68-4.5c3.27-5.74,1-12.92,1.52-19.5.44-5.79,3.06-11.16,5.63-16.36a74.74,74.74,0,0,1,6.63-11.61c2.37-3.21,5.26-6,7.6-9.26C33.19,66.56,34.8,51.62,44.6,42.58c2.73-2.52,6.82-4.34,8.65-7.62,1.46-2.63,1.47-6.38,3-9.24C60.59,17.92,67.18,13,75.37,12a3.87,3.87,0,0,1,.68,0Z"/>
    </g>
  </g>
</svg>
