<svg xmlns="http://www.w3.org/2000/svg" width="29.24" height="53.55" viewBox="0 0 29.24 53.55">
  <defs>
    <style>
      .cls-1 {
        fill: none;
        stroke: #333;
        stroke-miterlimit: 10;
        opacity: 0.8;
      }
    </style>
  </defs>
  <title>taiwanAsset 8</title>
  <g id="Layer_2" data-name="Layer 2">
    <g id="Layer_1-2" data-name="Layer 1">
      <path class="cls-1" d="M18.49,3.13a1.06,1.06,0,0,0,.74-.27L21,1.31a2.69,2.69,0,0,1,1.45-.8c1.57-.14,2.37,2.31,3.95,2.3.37,0,.83-.13,1.06.17s.11.52.25.74c.25.43,1.11.49,1,1s-.68.3-1.09.38c-.6.12-.9.79-1.1,1.37a5,5,0,0,0-.31,3.68c.14.32.36.61.48,1,.43,1.18-.39,2.41-1.07,3.47a16.17,16.17,0,0,0-2.43,5.94,31.19,31.19,0,0,1-.58,3.63A23.44,23.44,0,0,0,21.34,28c-.08.81.05,1.62,0,2.43a9.33,9.33,0,0,1-.87,2.71l-2.2,5a4.77,4.77,0,0,1-1.41,2.09,16.77,16.77,0,0,0-1.8,1,3.52,3.52,0,0,0-.64.92A17.57,17.57,0,0,0,12.62,52.8a18.24,18.24,0,0,0-2.37-.68l0-3.2A3.11,3.11,0,0,0,10,47.75a3.15,3.15,0,0,0-.88-1l-4.7-4.14a2.88,2.88,0,0,1-.68-.76,3.27,3.27,0,0,1-.31-1.16A23.66,23.66,0,0,0,1.81,35.4a1.19,1.19,0,0,0-.46-.65c-.15-.07-.32-.08-.47-.16a.9.9,0,0,1-.31-1.11,7.47,7.47,0,0,1,.64-1.08c.78-1.37.24-3.09.36-4.67a11.08,11.08,0,0,1,1.35-3.92A19.15,19.15,0,0,1,4.51,21c.57-.77,1.26-1.44,1.83-2.22C8.22,16.22,8.6,12.64,11,10.47c.66-.61,1.64-1,2.08-1.83.35-.63.35-1.53.73-2.21a6,6,0,0,1,4.57-3.29Z"/>
    </g>
  </g>
</svg>
