<svg xmlns="http://www.w3.org/2000/svg" width="76.47" height="140.43" viewBox="0 0 76.47 140.43">
  <defs>
    <style>
      .cls-1 {
        fill: none;
        stroke: #333;
        stroke-miterlimit: 10;
        stroke-width: 2px;
        opacity: 0.8;
      }
    </style>
  </defs>
  <title>taiwAsset 5</title>
  <g id="Layer_2" data-name="Layer 2">
    <g id="Layer_1-2" data-name="Layer 1">
      <path class="cls-1" d="M48.45,7.93a2.81,2.81,0,0,0,2-.69l4.68-4.09A7.16,7.16,0,0,1,58.91,1c4.14-.36,6.26,6.12,10.41,6.08,1,0,2.19-.33,2.81.44.43.55.28,1.37.64,2,.68,1.13,3,1.28,2.68,2.57-.23,1.07-1.8.79-2.88,1-1.59.3-2.38,2.07-2.91,3.6-1.09,3.14-2.17,6.66-.81,9.7.39.86,1,1.63,1.27,2.51,1.13,3.12-1,6.37-2.83,9.16A42.36,42.36,0,0,0,60.9,53.7c-.54,3.19-.64,6.47-1.55,9.58-1,3.47-3,6.67-3.39,10.27-.22,2.12.13,4.28-.08,6.4a24.1,24.1,0,0,1-2.31,7.16l-5.78,13.06c-.91,2-1.9,4.21-3.72,5.51-1.49,1.06-3.4,1.46-4.74,2.7a8.66,8.66,0,0,0-1.69,2.44A46.2,46.2,0,0,0,33,138.92a49.31,49.31,0,0,0-6.23-1.79l-.11-8.43a8.45,8.45,0,0,0-.44-3.09,8.23,8.23,0,0,0-2.33-2.76l-12.4-10.94a7.87,7.87,0,0,1-1.8-2,8.93,8.93,0,0,1-.8-3.07C8.09,102.07,6.26,97.53,4.45,93a3,3,0,0,0-1.2-1.69c-.39-.21-.86-.24-1.26-.44A2.36,2.36,0,0,1,1.18,88a18.65,18.65,0,0,1,1.69-2.84c2.07-3.63.64-8.17,1-12.33.28-3.66,1.94-7.06,3.56-10.35a48,48,0,0,1,4.19-7.34c1.5-2,3.33-3.81,4.81-5.85,5-6.82,6-16.26,12.18-22,1.72-1.59,4.31-2.75,5.46-4.82.93-1.66.93-4,1.93-5.84C38.68,11.7,42.84,8.6,48,8l.43,0Z"/>
    </g>
  </g>
</svg>
