<svg xmlns="http://www.w3.org/2000/svg" width="49.08" height="89.71" viewBox="0 0 49.08 89.71">
  <defs>
    <style>
      .cls-1 {
        fill: none;
        stroke: #333;
        stroke-miterlimit: 10;
        stroke-width: 2px;
        opacity: 0.8;
      }
    </style>
  </defs>
  <title>taiwaAsset 6</title>
  <g id="Layer_2" data-name="Layer 2">
    <g id="Layer_1-2" data-name="Layer 1">
      <path class="cls-1" d="M31,5.38a1.79,1.79,0,0,0,1.24-.44l3-2.58A4.47,4.47,0,0,1,37.61,1c2.62-.23,4,3.87,6.59,3.84.62,0,1.38-.21,1.77.28.27.34.18.86.41,1.24.43.71,1.86.81,1.69,1.62s-1.14.5-1.82.63c-1,.2-1.5,1.31-1.84,2.28-.69,2-1.37,4.21-.51,6.13.24.55.6,1,.8,1.59.72,2-.65,4-1.79,5.79a26.83,26.83,0,0,0-4,9.91,53,53,0,0,1-1,6c-.64,2.2-1.9,4.22-2.14,6.5-.14,1.34.08,2.7,0,4.05a15.23,15.23,0,0,1-1.46,4.52L30.58,63.7a8,8,0,0,1-2.35,3.48c-.94.67-2.15.92-3,1.71a5.52,5.52,0,0,0-1.07,1.54,29.23,29.23,0,0,0-3,17.77,33.49,33.49,0,0,0-3.94-1.14l-.07-5.32a5.07,5.07,0,0,0-.28-1.95A5,5,0,0,0,15.44,78L7.6,71.12a5,5,0,0,1-1.14-1.25A5.85,5.85,0,0,1,6,67.93a40.67,40.67,0,0,0-2.78-8.75,2,2,0,0,0-.76-1.07c-.25-.13-.54-.14-.79-.27A1.51,1.51,0,0,1,1.11,56a13.13,13.13,0,0,1,1.07-1.8c1.31-2.29.41-5.16.61-7.79A18.31,18.31,0,0,1,5,39.86a29.92,29.92,0,0,1,2.65-4.64c1-1.28,2.1-2.41,3-3.7,3.14-4.31,3.78-10.28,7.7-13.9,1.09-1,2.72-1.74,3.45-3.05.59-1.05.59-2.54,1.22-3.69A10,10,0,0,1,30.73,5.4a1.23,1.23,0,0,1,.27,0Z"/>
    </g>
  </g>
</svg>
