<svg xmlns="http://www.w3.org/2000/svg" width="16.39" height="29.76" viewBox="0 0 16.39 29.76">
  <defs>
    <style>
      .taiwaa {
        fill: none;
        stroke: #333;
        stroke-miterlimit: 10;
        opacity: 0.8;
      }
    </style>
  </defs>
  <title>taiwaaAsset 7</title>
  <g id="Layer_2" data-name="Layer 2">
    <g id="Layer_1-2" data-name="Layer 1">
      <path class="taiwaa-1" d="M10.31,1.93a.55.55,0,0,0,.4-.14l1-.85A1.49,1.49,0,0,1,12.47.5c.85-.07,1.29,1.27,2.15,1.26.2,0,.45-.07.58.09s.06.28.13.41.61.26.56.53-.38.16-.6.2-.49.43-.6.75a2.75,2.75,0,0,0-.17,2c.08.18.2.34.26.52.24.65-.21,1.32-.58,1.89a8.74,8.74,0,0,0-1.32,3.24,16.34,16.34,0,0,1-.32,2,12.83,12.83,0,0,0-.7,2.12c0,.44,0,.89,0,1.33a5,5,0,0,1-.47,1.48L10.17,21a2.63,2.63,0,0,1-.77,1.13,8.57,8.57,0,0,0-1,.56,1.85,1.85,0,0,0-.35.51,9.56,9.56,0,0,0-1,5.8,11.66,11.66,0,0,0-1.28-.37l0-1.74a1.71,1.71,0,0,0-.09-.64,1.74,1.74,0,0,0-.48-.57L2.66,23.42A1.6,1.6,0,0,1,2.29,23a1.74,1.74,0,0,1-.17-.63,12.69,12.69,0,0,0-.91-2.86A.6.6,0,0,0,1,19.17c-.08,0-.17-.05-.26-.09a.49.49,0,0,1-.16-.6,3,3,0,0,1,.35-.59c.42-.75.13-1.69.2-2.55a5.91,5.91,0,0,1,.73-2.14,9.4,9.4,0,0,1,.87-1.51c.31-.42.68-.79,1-1.21,1-1.41,1.24-3.37,2.52-4.55.35-.33.89-.56,1.13-1s.19-.84.4-1.21a3.26,3.26,0,0,1,2.49-1.79Z"/>
    </g>
  </g>
</svg>
